<svg width="1024" height="1024" viewBox="0 0 1024 1024" xmlns="http://www.w3.org/2000/svg" style="display:block" preserveAspectRatio="xMidYMid meet"><rect x="0" y="0" width="1024" height="1024" fill="#1f1c22"></rect><svg x="257" y="400" width="516" height="226" xmlns="http://www.w3.org/2000/svg" style="display:block" preserveAspectRatio="none"><svg version="1.1" xmlns="http://www.w3.org/2000/svg" style="display: block;" width="516" height="226" viewBox="-119.32 -60.42 2281.14 999.11" preserveAspectRatio="none"><g id="svg-group-32f1088d-1eb7-47e5-b281-b71e6b339016">
<path transform="translate(0,0)" fill="rgba(254, 253, 253, 1)" d="M 430.627 163.848 C 586.088 157.198 717.562 277.716 724.429 433.168 C 731.297 588.62 610.963 720.263 455.521 727.348 C 299.77 734.447 167.811 613.823 160.929 458.062 C 154.048 302.302 274.857 170.511 430.627 163.848 z M 457.558 696.201 C 595.675 688.254 701.278 569.977 693.586 431.845 C 685.894 293.713 567.811 187.892 429.665 195.33 C 291.159 202.787 185.002 321.245 192.714 459.737 C 200.426 598.229 319.08 704.168 457.558 696.201 z"/>
<path transform="translate(0,0)" fill="rgba(0, 0, 0, 1)" d="M 429.665 195.33 C 567.811 187.892 685.894 293.713 693.586 431.845 C 701.278 569.977 595.675 688.254 457.558 696.201 C 319.08 704.168 200.426 598.229 192.714 459.737 C 185.002 321.245 291.159 202.787 429.665 195.33 z M 463.75 693.45 C 473.291 692.812 470.108 691.24 477.5 688.263 C 480.161 687.192 488.148 689.625 491.313 689.248 C 494.481 689.027 495.934 685.796 498.531 684.231 C 499.698 683.528 505.743 685.787 506.009 685.747 C 514.874 684.407 510.103 677.655 521.011 681.487 L 523.655 680.728 C 524.565 678.66 524.871 677.414 527.069 676.623 C 590.858 653.343 642.836 605.756 671.641 544.264 C 675.768 535.6 679.365 521.076 684.718 516.418 C 686.641 512.285 683.591 509.443 683.932 505.597 C 684.239 502.133 688.676 503.819 689.316 499.096 C 689.922 494.617 687.603 490.976 687.597 486.816 C 687.589 481.753 692.885 483.476 693.145 477.223 C 693.585 466.676 691.187 456.538 690.969 445.914 C 690.762 435.791 694.004 423.479 692.627 413.991 C 691.027 411.426 689.755 409.993 688.444 408.414 C 686.449 403.282 690.291 399.265 689.021 393.897 C 688.467 391.555 683.929 387.303 684.106 386.553 C 686.532 376.245 680.843 373.088 676.571 364.242 C 674.899 360.779 678.057 358.793 676.153 355.575 C 673.552 351.107 670.105 347.468 667.774 342.719 C 643.241 292.882 600.949 251.63 551.691 226.267 C 548.617 224.685 529.805 214.02 528.384 214.119 C 518.177 215.071 511.32 208.549 502.158 205.273 C 500.113 204.542 493.888 206.989 493.139 206.233 C 484.594 197.606 483.05 202.016 472.981 202.101 C 468.42 202.139 457.366 197.49 452.179 197.1 C 444.806 196.096 432.064 196.839 424.519 197.221 C 422.977 197.638 411.661 202.21 412.293 202.259 C 402.499 201.498 397.593 197.822 388.812 206.012 C 387.71 207.041 382.183 203.896 377.977 205.49 L 377.914 205.974 C 377.657 207.861 377.649 208.033 376.883 209.735 C 371.972 212 368.245 207.795 364.418 210.128 C 364.417 210.128 362.387 213.44 362.387 213.44 C 350.125 219.316 333.904 224.305 322.286 231.074 C 272.509 260.074 229.468 310.648 209.284 364.508 C 206.069 373.087 203.344 384.345 201.59 393.406 C 201.632 393.186 197.798 397.336 197.753 397.697 C 196.587 407.004 202.785 412.351 194.087 418.604 C 192.072 426.346 191.311 468.702 194.807 477.936 C 195.6 480.032 199.685 484.022 198.446 488.11 C 197.265 492.009 195.798 494.536 197.748 498.222 C 199.881 502.254 203.398 503.962 201.722 508.804 C 200.717 511.706 200.934 511.361 201.731 514.095 C 211.066 522.931 202.997 519.535 207.913 529.348 C 208.88 531.68 210.232 534.055 211.195 536.362 C 245.513 618.591 319.103 671.266 405.047 688.92 C 429.521 693.947 438.141 694.245 463.75 693.45 z"/>
<path transform="translate(0,0)" fill="rgba(254, 253, 253, 1)" d="M 415.501 6.4559 C 529.208 2.62019 617.611 28.3557 709.49 98.0238 C 802.928 169.59 864.257 275.217 880.088 391.843 C 895.08 501.748 862.021 619.333 795.016 707.321 C 723.31 802.338 616.566 864.713 498.584 880.538 C 385.05 894.892 270.407 864.231 179.197 795.116 C 84.893 724.189 22.6934 618.647 6.32824 501.788 C -5.48968 412.787 10.5541 325.727 51.7347 246.379 C 60.9353 228.651 71.1572 207.68 83.3015 191.841 C 90.3706 195.095 103.305 203.896 110.395 208.469 C 109.021 210.291 107.66 212.121 106.311 213.961 C 93.1939 231.869 84.8142 248.202 74.8901 267.434 C 45.4161 324.551 29.9826 390.7 32.9061 454.988 C 33.4038 465.934 32.8821 477.061 34.614 488.235 C 34.6991 489.13 34.7975 490.024 34.9092 490.915 C 45.713 576.45 82.7408 656.539 140.904 720.178 C 227.925 813.965 358.322 867.46 486.36 851.386 C 599.097 837.214 701.462 778.483 770.593 688.31 C 834.352 605.339 862.928 500.624 850.155 396.767 C 813.735 110.54 484.916 -60.4216 236.084 94.4662 C 194.465 120.372 154.703 152.506 124.587 191.45 C 115.053 185.343 108.005 179.84 99.0694 172.87 C 104.584 166.284 110.236 159.813 116.019 153.461 C 191.046 70.0734 302.881 12.3956 415.501 6.4559 z"/>
<path transform="translate(0,0)" fill="rgba(254, 253, 253, 1)" d="M 721.184 184.749 C 728.256 185.375 740.983 204.085 745.781 210.031 C 780.878 253.538 805.682 299.16 819.48 353.502 C 844.145 449.279 829.761 550.932 779.492 636.107 C 725.693 727.21 637.788 793.1 535.25 819.18 C 436.867 843.912 332.688 828.521 245.66 776.396 C 69.9315 671.373 0.293697 443.733 101.451 263.298 C 104.436 257.974 107.526 252.737 110.66 247.5 C 115.826 238.516 122.456 228.389 127.987 219.473 C 137.311 223.836 145.172 230.656 153.82 236.781 C 121.582 292.593 96.0525 328.635 87.6977 395.517 C 45.2712 735.15 452.747 938.684 696.949 693.435 C 752.614 638.632 788.562 566.935 799.177 489.544 C 811.345 400.262 785.595 317.482 735.29 243.93 C 729.655 236.344 723.441 226.869 717.078 220.021 C 697.096 198.51 698.148 200.717 721.184 184.749 z"/>
<path transform="translate(0,0)" fill="rgba(254, 253, 253, 1)" d="M 661.583 237.246 C 669.159 231.696 677.108 223.211 684.287 218.784 C 685.589 218.76 687.391 219.279 688.281 220.185 C 730.105 262.767 766.251 337.19 775.309 394.091 C 789.112 480.185 767.618 568.207 715.688 638.249 C 664.183 709.111 583.405 760.903 496.503 774.574 C 407.595 788.541 316.803 766.23 244.494 712.647 C 172.912 660.332 124.78 581.959 110.494 494.456 C 96.8396 406.391 121.674 317.367 174.004 245.951 C 183.235 252.312 193.021 258.623 202.387 264.848 C 166.576 303.413 148.79 353.033 139.656 403.934 C 137.279 421.675 136.288 473.657 139.828 490.426 C 144.812 528.688 165.277 577.631 186.517 609.568 C 233.24 679.821 301.88 725.602 383.839 743.129 C 460.295 758.83 539.859 743.772 605.291 701.218 C 674.095 656.469 727 584.806 743.78 503.903 C 759.598 427.694 743.723 348.329 699.807 284.069 C 694.294 276.007 688.175 267.979 681.853 260.539 C 675.45 253.004 666.922 245.414 661.583 237.246 z"/>
<path transform="translate(0,0)" fill="rgba(254, 253, 253, 1)" d="M 412.537 60.388 C 416.702 59.7834 421.68 60.0901 425.942 59.8866 C 528.53 54.987 635.917 95.8343 709.402 167.766 C 700.148 174.994 695.354 179.104 687.075 187.205 C 681.958 183.892 674.335 176.796 669.17 172.843 C 658.342 164.555 647.288 155.913 635.908 148.409 C 569.586 103.946 490.141 83.2986 410.562 89.8427 C 327.779 99.2118 249.767 133.657 192.252 195.113 C 183.905 204.032 175.522 212.517 166.835 221.107 C 160.456 216.647 150.913 207.815 143.615 202.344 C 213.338 116.714 304.019 72.3652 412.537 60.388 z"/>
<path transform="translate(0,0)" fill="rgba(254, 253, 253, 1)" d="M 420.55 112.39 C 422.144 111.817 427.74 111.769 429.881 111.698 C 518.383 109.511 604.187 142.261 668.723 202.861 C 664.97 208.4 654.079 218.595 648.903 223.675 C 600.812 179.26 534.588 148.323 469.207 143.316 C 452.161 142.01 431.483 142.684 414.345 143.172 L 396.028 145.731 C 339.401 153.871 289.056 178.099 246.537 215.891 C 232.311 228.535 226.684 231.137 214.595 247.299 C 207.63 244.252 194.547 234.262 187.994 229.486 C 188.364 228.998 188.741 228.517 189.127 228.041 C 200.535 214.001 221.813 195.044 236.261 183.925 C 296.205 137.793 346.79 119.839 420.55 112.39 z"/>
<path transform="translate(0,0)" fill="rgba(0, 0, 0, 1)" fill-opacity="0.980392" d="M 139.828 490.426 C 136.288 473.657 137.279 421.675 139.656 403.934 C 140.445 428.497 142.503 452.64 139.926 477.262 C 139.514 481.19 139.82 486.393 139.828 490.426 z"/>
<path transform="translate(0,0)" fill="rgba(254, 253, 253, 1)" d="M 1959.88 4.5345 L 1993.32 4.49107 C 1981.39 37.7259 1970.64 71.2489 1959.33 104.686 L 1913.78 236.957 L 1757.98 679.889 C 1732.54 750.555 1707.33 826.659 1679.36 896 L 1675 896 C 1620.72 774.507 1567.8 652.409 1516.25 529.73 C 1505.79 505.39 1495.15 479.941 1483.86 456.062 C 1478.5 444.738 1467.5 412.716 1460.62 404.486 L 1459.16 404.364 C 1457.24 406.574 1434.67 462.944 1430.67 472.266 L 1319.22 729.271 C 1301.76 769.857 1269.85 846.653 1250.21 889.262 C 1248.58 892.805 1218.38 893.874 1212.39 891.958 L 1211.84 890.646 C 1224.14 861.937 1238.21 834.552 1250.5 805.929 C 1259.66 784.578 1269.35 763.585 1278.76 742.352 L 1356.93 561.517 C 1392.2 481.389 1427.86 401.167 1457.19 318.611 C 1467.68 335.767 1482.01 370.5 1489.84 389.52 L 1518.27 457.011 L 1603.86 653.24 C 1608.51 663.675 1639.34 737.206 1643.55 739.579 C 1646.03 736.643 1651.81 715.413 1650.54 711.716 C 1631.78 656.968 1603.02 600.889 1580.43 547.992 C 1540.31 452.132 1499.44 356.594 1457.8 261.386 C 1445.65 234.023 1428.06 186.307 1414.01 163.293 C 1417.18 148.023 1425.92 130.707 1430.58 115.754 C 1445.71 144.763 1453.66 170.299 1466.24 199.928 L 1541.97 376.703 L 1617.6 551.199 C 1629.3 577.706 1640.87 604.463 1651.61 631.368 C 1656.16 642.766 1664.9 661.3 1668.31 672.438 C 1674.99 662.357 1677.29 653.221 1680.96 641.816 C 1659.99 600.967 1641.5 554.64 1623.68 512 L 1561.55 366.515 C 1532.16 299.443 1503.39 232.094 1475.27 164.48 C 1467.13 144.929 1450.15 109.093 1443.95 90.8924 C 1449.46 75.8828 1454.76 60.7971 1459.85 45.6397 C 1464.73 53.2236 1475.57 81.9182 1479.6 91.7219 L 1518 184.086 L 1627.27 439.397 C 1643.66 478.44 1660.61 517.248 1678.11 555.808 C 1684.32 569.627 1690.43 586.022 1697.23 599.112 C 1703.31 587.566 1707.42 574.166 1711.77 561.805 C 1727.56 516.969 1743.08 472.027 1758.91 427.201 C 1793.81 328.533 1827.93 229.589 1861.26 130.378 C 1875.33 88.8883 1891.07 46.4241 1904.25 4.75847 C 1915.72 4.5033 1927.18 4.47033 1938.65 4.6596 L 1686.15 725.977 C 1682.47 736.775 1663.18 791.445 1664.22 799.908 L 1664.29 800.546 C 1664.91 805.522 1669.27 815.756 1671.3 820.848 C 1681.42 802.226 1692.1 769.684 1699.64 749.07 L 1745.34 622.496 C 1798.52 474.713 1850.39 326.461 1900.93 177.757 L 1939.34 66.0491 C 1945.15 48.5983 1953.18 20.4401 1959.88 4.5345 z"/>
<path transform="translate(0,0)" fill="rgba(254, 253, 253, 1)" d="M 873.85 4.39024 C 884.819 4.31384 897.201 3.98874 908.045 4.43943 C 917.359 24.9282 921.317 48.4444 928.882 69.4564 C 938.78 96.9491 947.578 124.75 957.196 152.284 L 1108.37 593.887 C 1120.91 630.242 1133.23 666.851 1146.06 703.071 C 1149.5 712.785 1158.07 737.55 1162.81 745.061 C 1166.43 735.387 1171.3 721.385 1176.32 712.652 C 1171.13 705.894 1167.27 698.67 1164.48 690.622 C 1152.72 656.661 1141.01 622.553 1129.12 588.642 L 1028.59 295.462 C 1006.52 233.107 985.131 170.514 964.423 107.692 C 954.993 80.0136 936.649 31.282 930.959 4.56497 C 941.818 4.32655 951.931 4.16398 962.796 4.42209 C 970.06 20.1357 973.61 35.6213 979.163 51.4687 C 987.291 74.6625 994.055 99.4508 1002 122.363 L 1121.81 472.84 L 1167.15 605.383 C 1173.49 624.015 1182.91 657.205 1190.81 673.868 C 1198.11 664.476 1200.8 657.015 1203.85 645.351 C 1193.22 620.782 1186.35 598.437 1177.79 572.977 L 1151.43 495.998 L 1043.91 181.013 L 1003.93 61.1436 C 998.355 44.4213 991.435 20.0617 985.186 4.69494 C 997.13 4.38438 1007.62 4.20371 1019.54 4.63388 C 1021.73 16.5631 1028.68 35.3147 1032.75 47.4261 L 1056.83 119.2 L 1165.36 439.197 L 1206.86 561.339 C 1210.2 571.142 1218.76 600.214 1222.3 606.657 C 1227.63 594.538 1233.29 582.604 1238.78 570.565 C 1264.4 514.468 1288.41 457.251 1312.35 400.413 C 1331.59 354.204 1351.2 308.154 1371.19 262.266 C 1382.3 236.514 1392.38 211.711 1404.54 186.174 C 1410.95 207.554 1426.41 238.607 1434.5 260.127 C 1439.19 272.582 1446.78 287.4 1449.96 300.392 C 1436.96 319.693 1429.16 340.223 1420.06 361.583 L 1385.85 444.004 C 1370.83 480.391 1354.15 516.872 1338.41 553.038 C 1303.6 632.963 1268.99 712.989 1234.27 792.952 C 1228.49 806.267 1221.02 819.019 1215.13 832.319 C 1205.87 851.284 1195.23 879.772 1183.36 896 L 1180.34 896 C 1160.08 843.214 1142.19 788.548 1123.88 735.03 L 1031.27 463.237 L 910.863 109.673 C 899.345 75.381 884.514 38.5996 873.85 4.39024 z M 1190.6 800.367 C 1192.65 796.366 1199.83 786.07 1200.66 783.639 C 1215.61 740.119 1237.77 700.126 1254.46 657.395 C 1306.01 538.663 1356.26 419.412 1406.09 299.965 C 1408.22 294.851 1408.14 286.462 1400.8 286.52 C 1390.47 303.389 1382.3 328.897 1374.38 347.689 C 1334.52 442.241 1293.48 536.268 1253.41 630.709 C 1245.07 650.383 1236.41 670.2 1227.78 689.733 C 1217.64 712.747 1207.7 735.845 1197.95 759.025 C 1193.85 768.696 1184.03 785.609 1184.15 796.643 C 1184.18 799.855 1187.78 800.31 1190.6 800.367 z"/>
<path transform="translate(0,0)" fill="rgba(0, 0, 0, 1)" d="M 1404.48 273.444 C 1416.74 280.441 1409.6 299.954 1405.92 309.735 C 1387.23 359.35 1365.4 407.62 1344.57 456.34 L 1243.44 691.351 C 1235.9 708.669 1197.55 803.329 1188.67 813.26 C 1185.24 807.24 1182.01 800.513 1178.89 794.28 C 1181.7 785.093 1187.86 771.346 1191.69 762.273 L 1215.4 706.878 L 1289.58 535.308 L 1360.48 368.787 C 1369.93 346.516 1392.37 289.894 1404.48 273.444 z M 1190.6 800.367 C 1192.65 796.366 1199.83 786.07 1200.66 783.639 C 1215.61 740.119 1237.77 700.126 1254.46 657.395 C 1306.01 538.663 1356.26 419.412 1406.09 299.965 C 1408.22 294.851 1408.14 286.462 1400.8 286.52 C 1390.47 303.389 1382.3 328.897 1374.38 347.689 C 1334.52 442.241 1293.48 536.268 1253.41 630.709 C 1245.07 650.383 1236.41 670.2 1227.78 689.733 C 1217.64 712.747 1207.7 735.845 1197.95 759.025 C 1193.85 768.696 1184.03 785.609 1184.15 796.643 C 1184.18 799.855 1187.78 800.31 1190.6 800.367 z"/>
<path transform="translate(0,0)" fill="rgba(254, 253, 253, 1)" d="M 2014.92 4.996 C 2023.6 4.35613 2038.89 4.69231 2048 4.5947 L 2048 9.37905 C 2039.89 25.2706 2036.93 42.9987 2030.91 59.6595 C 2009.35 119.372 1988.62 179.382 1968.73 239.672 C 1960.48 264.534 1951.21 289.25 1942.69 314.077 L 1816.79 672.56 L 1762.33 827.868 C 1756.95 842.989 1745.4 879.397 1739.74 891.576 C 1734.07 892.125 1707.47 893.469 1704.78 890.493 C 1717.68 849.694 1737.07 803.581 1751.62 761.936 L 1889.2 373.224 C 1903.92 331.893 1916.87 291.266 1930.94 250.04 L 1983.33 99.3228 C 1993.81 68.7886 2003.59 35.0153 2014.92 4.996 z"/>
</g></svg></svg></svg>