<svg width="1024" height="1024" viewBox="0 0 1024 1024" xmlns="http://www.w3.org/2000/svg" style="display:block" preserveAspectRatio="xMidYMid meet"><svg x="104" y="121" width="816" height="782" xmlns="http://www.w3.org/2000/svg" style="display:block" preserveAspectRatio="none"><svg version="1.1" xmlns="http://www.w3.org/2000/svg" style="display: block;" width="816" height="782" viewBox="-9.24 -13.56 2066.04 1979.96" preserveAspectRatio="none"><g id="svg-group-ffbae025-e7c2-4d1b-a2a8-df144ad02e0f">
<path transform="translate(0,0)" fill="rgba(59, 130, 246, 1)" d="M 991.987 84.5024 C 1038.44 83.8785 1082.99 84.5208 1129.27 89.6494 C 1318.78 111.721 1496.99 191.239 1639.99 317.528 C 1830.33 484.098 1946.63 719.522 1963.24 971.912 C 1975.52 1150.1 1925.38 1340.21 1835.04 1493.55 C 1804.2 1545.09 1768.82 1593.77 1729.32 1639.01 C 1588.86 1798.61 1399.18 1906.8 1190.3 1946.45 C 1159.84 1951.91 1129.13 1955.95 1098.29 1958.57 C 1083.89 1959.69 1070.07 1959.85 1055.82 1960.82 C 1034.89 1966.4 957.199 1958.95 932.627 1956.29 C 735.293 1935.21 549.593 1852.58 401.835 1720.09 C 220.576 1558.56 100.719 1322.88 87.1328 1079.58 C 73.4222 829.133 160.52 583.613 328.996 397.793 C 474.453 235.279 671.582 127.997 887.035 94.0987 C 924.592 88.2736 954.446 86.5712 991.987 84.5024 z M 1063.44 1917.26 C 1557.43 1896.06 1940.75 1478.5 1919.71 984.497 C 1898.66 490.496 1481.21 107.044 987.207 127.936 C 492.983 148.837 109.325 566.509 130.38 1060.73 C 151.435 1554.94 569.226 1938.47 1063.44 1917.26 z"/>
<path transform="translate(0,0)" fill="rgba(59, 130, 246, 1)" d="M 158.41 1001.15 C 172.063 527.32 563.697 152.28 1037.67 159.142 C 1511.65 166.003 1892.26 552.223 1892.19 1026.25 C 1892.12 1500.27 1511.4 1886.38 1037.42 1893.1 C 563.443 1899.83 171.918 1524.68 158.403 1050.84 C 157.821 1046.15 155.903 1040.93 154.977 1035.84 C 152.475 1022.08 155.835 1014.15 158.41 1001.15 z M 1038.49 1845.34 C 1491.13 1837.92 1851.92 1464.73 1844.05 1012.09 C 1836.18 559.46 1462.63 199.037 1010.01 207.359 C 558.016 215.669 198.212 588.578 206.071 1040.58 C 213.931 1492.57 586.481 1852.75 1038.49 1845.34 z"/>
<path transform="translate(0,0)" fill="rgba(254, 254, 254, 1)" d="M 158.41 1001.15 C 157.933 1017.71 157.931 1034.28 158.403 1050.84 C 157.821 1046.15 155.903 1040.93 154.977 1035.84 C 152.475 1022.08 155.835 1014.15 158.41 1001.15 z"/>
<path transform="translate(0,0)" fill="rgba(59, 130, 246, 1)" d="M 656.481 844.295 C 754.553 840.089 837.657 915.778 842.61 1013.81 C 847.562 1111.85 772.51 1195.53 674.513 1201.23 C 575.455 1206.99 490.671 1130.95 485.665 1031.85 C 480.658 932.748 557.347 848.546 656.481 844.295 z M 680.556 1180.42 C 767.447 1171.5 830.694 1093.88 821.89 1006.98 C 813.087 920.076 735.561 856.723 648.645 865.407 C 561.561 874.108 498.058 951.818 506.879 1038.89 C 515.699 1125.96 593.495 1189.36 680.556 1180.42 z"/>
<path transform="translate(0,0)" fill="rgba(59, 130, 246, 1)" d="M 1623.03 743.294 C 1630.22 743.273 1637.88 743.119 1645.03 743.402 C 1605.78 859.539 1565.66 975.378 1524.67 1090.91 L 1478.18 1221.58 C 1473.89 1233.62 1449.82 1304.4 1444.62 1308.01 L 1443.41 1308.2 C 1438.37 1305 1437.73 1303.25 1435.26 1297.9 C 1427.99 1282.17 1421.15 1266.17 1414.27 1250.27 L 1342.81 1083.02 C 1338.6 1073.35 1313.08 1011.53 1307.52 1008.02 C 1298.58 1014.25 1279.41 1082.52 1265.45 1094.93 C 1264.19 1099.42 1255.15 1119.13 1252.78 1124.5 C 1244.37 1143.54 1236.06 1162.62 1227.86 1181.75 C 1217.24 1206.01 1206.75 1230.34 1196.4 1254.72 C 1190.76 1268.1 1180.48 1293.83 1173.72 1305.76 C 1165.79 1306.19 1157.31 1306.11 1149.33 1306.18 C 1157.64 1284.33 1173.83 1252.14 1183.86 1229.12 C 1213.11 1162 1242.55 1094.96 1271.48 1027.71 C 1276.86 1015.21 1303.19 947.313 1306.82 943.534 C 1307.84 944.088 1308.87 944.643 1309.89 945.197 C 1340.45 1010.19 1367.38 1078.95 1396.92 1144.4 C 1402.44 1156.63 1416.02 1191.44 1421.19 1196.48 L 1423.16 1196.45 C 1424.2 1195.21 1425.96 1192.88 1425.33 1191.24 C 1415.93 1166.87 1402.54 1138 1392.35 1114.57 L 1302.95 906.206 C 1296.23 890.489 1280.63 857.557 1277.1 841.289 C 1275.94 835.951 1282.95 820.808 1288.49 815.433 L 1289.36 815.535 C 1293.19 818.633 1309.15 860.934 1312.45 868.794 L 1358.08 976.181 C 1385.16 1039.92 1413.25 1102.52 1439.69 1166.75 C 1441.97 1160.08 1443.94 1154.1 1445.85 1147.32 C 1439.45 1131.56 1430.47 1113.23 1423.54 1096.92 L 1332.76 884.126 C 1321.05 856.314 1307.65 826.324 1296.83 798.388 C 1299.16 790.589 1304.26 778.445 1307.31 770.52 C 1314.43 784.104 1321.54 802.258 1327.51 816.623 L 1357.93 889.666 C 1390.46 966.73 1423.65 1043.52 1457.49 1120.01 C 1460.84 1108.79 1466.28 1095.33 1470.24 1083.93 C 1480.07 1054.92 1490.18 1026.01 1500.56 997.197 C 1530.13 912.767 1559.19 828.162 1587.75 743.388 C 1595.24 743.034 1602.85 743.344 1610.35 743.538 C 1609.07 747.833 1607.68 751.604 1606.15 755.796 C 1606.72 757.758 1607.26 759.459 1606.63 761.511 C 1601.55 778.041 1595.63 795.251 1589.99 811.553 L 1561.66 894.055 L 1480.88 1124.43 C 1474.93 1141.08 1438.84 1236.88 1440.23 1247.09 L 1441.58 1247.02 C 1449.15 1237.48 1460.55 1198 1465.91 1183.59 C 1491.05 1117.06 1515.14 1050.13 1538.17 982.84 L 1566.87 899.908 C 1571.93 885.308 1576.8 870.391 1582.23 855.897 C 1583.15 853.442 1584.67 852.153 1586.72 850.572 C 1597.25 816.354 1611.56 777.999 1623.03 743.294 z"/>
<path transform="translate(0,0)" fill="rgba(254, 254, 254, 1)" d="M 1606.15 755.796 C 1606.72 757.758 1607.26 759.459 1606.63 761.511 C 1601.55 778.041 1595.63 795.251 1589.99 811.553 L 1561.66 894.055 L 1480.88 1124.43 C 1474.93 1141.08 1438.84 1236.88 1440.23 1247.09 L 1441.58 1247.02 C 1449.15 1237.48 1460.55 1198 1465.91 1183.59 C 1491.05 1117.06 1515.14 1050.13 1538.17 982.84 L 1566.87 899.908 C 1571.93 885.308 1576.8 870.391 1582.23 855.897 C 1583.15 853.442 1584.67 852.153 1586.72 850.572 C 1556.51 939.899 1525.39 1028.92 1493.39 1117.62 C 1476.75 1164.09 1459.89 1215.83 1440.65 1261.03 C 1439.07 1255.6 1437.14 1250.76 1435.11 1245.5 L 1514.1 1022.01 L 1564.67 876.37 C 1578.21 836.08 1592.03 795.888 1606.15 755.796 z"/>
<path transform="translate(0,0)" fill="rgba(254, 254, 254, 1)" d="M 1306.82 943.534 C 1307.84 944.088 1308.87 944.643 1309.89 945.197 C 1340.45 1010.19 1367.38 1078.95 1396.92 1144.4 C 1402.44 1156.63 1416.02 1191.44 1421.19 1196.48 L 1423.16 1196.45 C 1424.2 1195.21 1425.96 1192.88 1425.33 1191.24 C 1415.93 1166.87 1402.54 1138 1392.35 1114.57 L 1302.95 906.206 C 1296.23 890.489 1280.63 857.557 1277.1 841.289 C 1275.94 835.951 1282.95 820.808 1288.49 815.433 C 1284.6 824.381 1280.94 833.433 1277.53 842.577 C 1287.85 862.803 1297.73 887.571 1306.71 908.733 L 1343.06 993.339 C 1371.02 1059.08 1401.09 1125.62 1428.32 1191.26 C 1426.38 1197.74 1424.58 1203.73 1423.01 1210.31 C 1402.97 1162.38 1380.08 1113.97 1359.71 1065.95 C 1342.38 1025.09 1325.19 983.904 1306.82 943.534 z"/>
<path transform="translate(0,0)" fill="rgba(254, 254, 254, 1)" d="M 1307.19 994.507 C 1315.45 1011.61 1324.67 1035.17 1332.54 1053.17 L 1402.2 1216 C 1410.45 1235.62 1418.96 1255.14 1427.72 1274.54 C 1432.21 1284.69 1438.08 1299.05 1443.41 1308.2 C 1438.37 1305 1437.73 1303.25 1435.26 1297.9 C 1427.99 1282.17 1421.15 1266.17 1414.27 1250.27 L 1342.81 1083.02 C 1338.6 1073.35 1313.08 1011.53 1307.52 1008.02 C 1298.58 1014.25 1279.41 1082.52 1265.45 1094.93 C 1278.7 1063.9 1296.74 1025.41 1307.19 994.507 z"/>
<path transform="translate(0,0)" fill="rgba(59, 130, 246, 1)" d="M 972.089 743.446 C 978.782 742.994 986.689 743.102 993.497 743.036 C 998.871 757.486 1004.02 774.802 1008.96 789.687 L 1038.77 878.649 L 1137.65 1167.96 C 1139.84 1162.53 1142.53 1156.82 1144.95 1151.45 C 1136.26 1128.42 1128.05 1102.3 1119.92 1078.68 C 1102.34 1028.62 1085.27 978.387 1068.73 927.976 C 1048.25 866.386 1026.33 805.665 1007.02 743.501 C 1013.94 743.193 1021.41 743.22 1028.37 743.112 C 1054.47 821.389 1080.92 902.082 1108.31 979.843 C 1118.65 987.93 1147.62 1105.22 1158.4 1108.63 C 1165.31 1104.33 1190.54 1041.64 1195.74 1029.46 L 1250.11 902.235 C 1254.3 892.521 1263.83 865.998 1270.82 861.02 L 1272.8 861.07 C 1275.63 865.598 1299.02 923.092 1301.25 930.384 C 1284.83 959.782 1272.97 994.021 1259.5 1025.15 L 1180.24 1207.46 C 1170.94 1229.17 1161.18 1250.69 1150.96 1271.99 C 1147.95 1278.41 1137.18 1305.06 1131.04 1306.96 C 1128.16 1305.02 1125.89 1298.19 1124.7 1294.81 C 1105.2 1239.04 1086.38 1182.94 1067.35 1127.04 L 994.53 913.262 C 982.408 877.038 970.043 840.895 957.437 804.836 C 950.826 785.726 941.916 762.128 936.797 743.052 L 959.046 743.18 C 980.847 816.422 1010.82 897.352 1035.29 970.869 C 1037.57 972.927 1038.88 974.278 1039.95 977.257 C 1060.84 1035.62 1079.5 1094.84 1101.14 1152.93 C 1103.78 1160 1105.16 1167.71 1108.61 1174.42 C 1111.96 1180.55 1114.87 1193.43 1120.3 1197.08 L 1121.4 1196.21 C 1122.03 1182.99 1104.44 1152.08 1106.15 1137.34 C 1104.38 1134.04 1096.17 1109.66 1094.52 1104.92 L 1068.34 1029.73 L 1015.14 872.509 C 1000.75 830.163 984.943 786.065 972.089 743.446 z M 1136.24 1246.67 C 1141.79 1239.44 1142.27 1233.96 1145.89 1226.04 C 1188.89 1132 1229.07 1036.5 1268.59 940.956 C 1270.37 936.656 1272.37 930.169 1272.94 925.558 C 1271.6 923.235 1272.56 924.155 1269.46 923.313 C 1265.22 933.738 1260.11 943.946 1255.75 954.4 L 1161.07 1177.05 C 1157.34 1185.83 1133.61 1238.4 1133.24 1243.99 C 1134.59 1246.39 1133.65 1245.5 1136.24 1246.67 z"/>
<path transform="translate(0,0)" fill="rgba(254, 254, 254, 1)" d="M 1108.31 979.843 C 1118.65 987.93 1147.62 1105.22 1158.4 1108.63 C 1165.31 1104.33 1190.54 1041.64 1195.74 1029.46 L 1250.11 902.235 C 1254.3 892.521 1263.83 865.998 1270.82 861.02 C 1251.13 902.333 1231.01 952.762 1212.89 995.498 L 1176.69 1080.54 C 1170.24 1095.33 1163.03 1110.28 1156.86 1125.07 C 1143.01 1077.83 1120.79 1025.88 1108.31 979.843 z"/>
<path transform="translate(0,0)" fill="rgba(254, 254, 254, 1)" d="M 1035.29 970.869 C 1037.57 972.927 1038.88 974.278 1039.95 977.257 C 1060.84 1035.62 1079.5 1094.84 1101.14 1152.93 C 1103.78 1160 1105.16 1167.71 1108.61 1174.42 C 1111.96 1180.55 1114.87 1193.43 1120.3 1197.08 L 1121.4 1196.21 C 1122.03 1182.99 1104.44 1152.08 1106.15 1137.34 C 1111.31 1152.73 1118.69 1178.88 1127.05 1191.59 C 1124.09 1198.48 1121.76 1205.5 1119.3 1212.58 C 1099.45 1158.07 1080.24 1103.32 1061.67 1048.35 C 1053.2 1023.37 1042.56 995.978 1035.29 970.869 z"/>
<path transform="translate(0,0)" fill="rgba(254, 254, 254, 1)" d="M 1272.29 913.423 C 1279.34 918.547 1276.23 928.318 1273.78 935.095 C 1261.87 968.141 1246.61 999.995 1233.15 1032.47 C 1214.19 1078.23 1194.69 1123.77 1174.64 1169.07 C 1161.91 1198.19 1149.54 1227.74 1135.56 1256.23 L 1129.55 1242.39 L 1224.77 1020.52 L 1252.41 955.069 C 1257.4 943.403 1265.46 923.546 1272.29 913.423 z M 1136.24 1246.67 C 1141.79 1239.44 1142.27 1233.96 1145.89 1226.04 C 1188.89 1132 1229.07 1036.5 1268.59 940.956 C 1270.37 936.656 1272.37 930.169 1272.94 925.558 C 1271.6 923.235 1272.56 924.155 1269.46 923.313 C 1265.22 933.738 1260.11 943.946 1255.75 954.4 L 1161.07 1177.05 C 1157.34 1185.83 1133.61 1238.4 1133.24 1243.99 C 1134.59 1246.39 1133.65 1245.5 1136.24 1246.67 z"/>
<path transform="translate(0,0)" fill="rgba(59, 130, 246, 1)" d="M 649.259 744.399 C 658.549 742.706 676.985 743.74 686.389 744.584 C 739.564 749.301 790.234 769.317 832.276 802.214 C 891.058 848.998 933.461 916.212 941.561 991.708 C 949.869 1065.14 928.176 1138.81 881.401 1196.02 C 835.709 1252.45 765.89 1291.5 693.499 1298.96 C 619.604 1306.88 545.646 1284.6 488.419 1237.18 C 432.584 1191.52 394.167 1123.36 387.163 1051.31 C 381.429 996.176 392.4 940.589 418.652 891.766 C 423.405 882.749 430.798 869.485 437.087 861.789 C 443.335 864.841 448.878 868.711 454.685 872.533 C 417.196 923.624 400.177 986.891 406.974 1049.89 C 407.306 1057.53 410.594 1073.4 412.399 1080.79 C 423.783 1128.98 448.786 1172.87 484.425 1207.25 C 534.584 1254.69 599.915 1282.01 669.378 1279.99 C 739.16 1277.75 805.208 1247.94 853.051 1197.09 C 897.71 1149.61 925.379 1084.58 923.147 1019.01 C 921.332 948.881 891.203 882.474 839.625 834.922 C 736.737 740.123 584.307 740.778 484.417 839.245 C 477 846.557 470.11 854.138 463.109 861.839 C 456.409 857.897 452.675 855.478 446.469 850.823 C 448.205 848.413 450.276 845.835 452.237 843.613 C 506.388 782.253 568.575 750.882 649.259 744.399 z"/>
<path transform="translate(0,0)" fill="rgba(59, 130, 246, 1)" d="M 840.051 856.701 C 844.575 858.962 852.338 868.942 855.635 873.001 C 876.367 898.525 892.425 927.821 901.503 959.503 C 918.674 1020.39 910.559 1085.63 878.994 1140.45 C 845.86 1198.17 791.308 1240.5 727.167 1258.27 C 665.485 1275.08 599.658 1266.78 544.074 1235.2 C 434.923 1173.41 386.207 1034.34 441.402 920.237 C 445.526 911.712 450.002 903.643 454.658 895.404 C 458.444 889.124 461.77 884.62 466.151 878.713 L 483.04 890.941 C 457.35 922.991 439.459 970.87 438.142 1011.58 C 431.662 1212.02 666.312 1323.01 816.353 1187.35 C 860.793 1147.26 887.528 1091.2 890.698 1031.43 C 893.527 969.57 867.087 912.864 826.201 867.792 L 840.051 856.701 z"/>
<path transform="translate(0,0)" fill="rgba(59, 130, 246, 1)" d="M 816.974 877.72 C 839.388 894.767 864.33 947.842 871.368 974.714 C 884.437 1025.97 876.545 1080.32 849.44 1125.74 C 820.771 1174.49 771.513 1213.82 716.409 1227.62 C 661.35 1241.26 603.122 1232.34 554.664 1202.86 C 452.99 1141.88 421.735 1014.26 483.126 912.922 C 486.566 907.109 490.423 901.503 494.178 895.883 C 500.268 899.573 506.485 903.955 512.406 907.979 C 487.799 939.971 475.715 967.198 471.935 1007.9 C 462.255 1112.15 546.504 1206.06 649.719 1213.8 C 703.781 1217.85 751.515 1199.99 792.065 1164.4 C 830.507 1130.85 854.109 1083.45 857.716 1032.55 C 860.223 992.569 847.38 950.366 824.264 917.753 C 818.001 908.917 809.213 899.789 801.916 891.48 C 806.318 887.03 812.23 881.985 816.974 877.72 z"/>
<path transform="translate(0,0)" fill="rgba(59, 130, 246, 1)" d="M 1659.37 743.506 L 1679.62 743.088 C 1672.47 772.537 1653.55 822.29 1643.19 852.578 C 1616.06 932.146 1588.36 1011.52 1560.08 1090.68 L 1504.19 1249.81 C 1498.08 1266.82 1491.55 1285.72 1485.39 1302.86 C 1484.54 1305.24 1483.71 1305.12 1482.01 1305.65 L 1460.98 1305.4 L 1584.13 959.871 L 1633.64 815.39 C 1636.69 806.382 1655.6 746.071 1659.37 743.506 z"/>
<path transform="translate(0,0)" fill="rgba(59, 130, 246, 1)" d="M 630.143 780.393 L 631.827 777.429 C 638.142 772.976 644.148 778.739 651.165 777.122 L 652.058 774.659 C 658.244 770.835 670.429 773.454 676.259 777.282 L 677.399 778.018 C 735.667 782.137 790.65 806.544 832.791 846.996 C 827.903 851.583 822.938 856.088 817.898 860.508 C 785.02 828.152 739.742 807.515 694.546 799.731 C 671.384 802.971 648.688 798.725 626.047 803.615 C 624.831 803.877 620.632 802.635 619.441 802.174 C 593.177 805.077 554.751 825.056 533.104 840.421 C 518.233 850.977 502.633 867.972 489.996 881.337 C 485.115 877.946 479.042 872.65 474.325 868.758 C 520.671 818.468 561.153 791.437 630.143 780.393 z"/>
<path transform="translate(0,0)" fill="rgba(254, 254, 254, 1)" d="M 619.441 802.174 C 644.137 796.946 669.562 796.119 694.546 799.731 C 671.384 802.971 648.688 798.725 626.047 803.615 C 624.831 803.877 620.632 802.635 619.441 802.174 z"/>
<path transform="translate(0,0)" fill="rgba(254, 254, 254, 1)" d="M 630.143 780.393 L 631.827 777.429 C 638.142 772.976 644.148 778.739 651.165 777.122 L 652.058 774.659 C 658.244 770.835 670.429 773.454 676.259 777.282 L 677.399 778.018 C 659.983 777.784 647.701 778.009 630.143 780.393 z"/>
<path transform="translate(0,0)" fill="rgba(59, 130, 246, 1)" d="M 649.248 811.413 C 649.852 811.323 650.456 811.233 651.06 811.143 C 712.478 807.962 764.211 830.297 808.407 870.114 C 803.857 874.244 799.311 878.749 794.87 883.033 C 745.215 842.288 708.691 830.451 645.804 832.06 C 593.612 837.874 554.422 859.566 519.256 898.238 C 512.482 893.645 508.837 891.121 502.815 885.692 C 543.784 841.626 588.461 816.333 649.248 811.413 z"/>
<path transform="translate(0,0)" fill="rgba(59, 130, 246, 1)" d="M 55.8579 1135.29 C 43.2408 1156.28 15.3092 1154.26 10.2065 1132.68 C 2.99758 1102.19 4.15831 1065.77 1.21796 1034.39 C -0.428723 1016.82 3.51974 994.784 3.55628 976.887 C 27.4485 591.216 286.163 223.56 644.446 76.4432 C 731.466 40.7115 823.021 16.9209 917.174 7.21145 C 1109.89 -13.557 1304.5 21.8843 1477.53 109.259 C 1544.02 143.721 1606.62 185.23 1664.25 233.071 C 1697.47 260.154 1734.05 296.021 1762.84 327.419 C 1893.48 469.074 1984.42 642.702 2026.46 830.759 C 2039.36 889.756 2042.03 932.661 2048 991.485 L 2048 1064.63 C 2045.3 1086.72 2045.21 1111.66 2039.22 1133.11 C 2037.69 1138.61 2032.99 1143.33 2029 1147.35 C 2017.83 1150.85 2005.9 1151.28 1997.9 1141.32 C 1989.33 1130.67 1994.65 1106.05 1995.7 1092.74 C 2014.96 847.407 1921.7 598.096 1768.49 408.608 C 1604 206.753 1373.37 78.4026 1113.44 54.5433 C 862.468 30.7306 612.395 108.302 418.955 269.971 C 223.545 432.915 84.7375 680.132 57.0881 933.793 C 52.439 975.243 50.8921 1016.98 52.4603 1058.66 C 53.3106 1080.43 57.6372 1115.72 55.8579 1135.29 z"/>
</g></svg></svg></svg>